<svg width="97" height="178" viewBox="0 0 97 178" fill="none" xmlns="http://www.w3.org/2000/svg">
<mask id="path-1-inside-1" fill="white">
<path fill-rule="evenodd" clip-rule="evenodd" d="M6.45569 15.646C6.45569 13.9891 7.79883 12.646 9.45569 12.646H20.0473V14.6847H8.49443V24.1988H6.45569V15.646Z"/>
</mask>
<path fill-rule="evenodd" clip-rule="evenodd" d="M6.45569 15.646C6.45569 13.9891 7.79883 12.646 9.45569 12.646H20.0473V14.6847H8.49443V24.1988H6.45569V15.646Z" fill="black"/>
<path d="M20.0473 12.646H23.0473V9.646H20.0473V12.646ZM20.0473 14.6847V17.6847H23.0473V14.6847H20.0473ZM8.49443 14.6847V11.6847H5.49443V14.6847H8.49443ZM8.49443 24.1988V27.1988H11.4944V24.1988H8.49443ZM6.45569 24.1988H3.45569V27.1988H6.45569V24.1988ZM23.0473 14.6847V12.646H17.0473V14.6847H23.0473ZM8.49443 17.6847H20.0473V11.6847H8.49443V17.6847ZM11.4944 24.1988V14.6847H5.49443V24.1988H11.4944ZM6.45569 27.1988H8.49443V21.1988H6.45569V27.1988ZM20.0473 9.646H9.45569V15.646H20.0473V9.646ZM3.45569 15.646V24.1988H9.45569V15.646H3.45569ZM9.45569 9.646C6.14198 9.646 3.45569 12.3323 3.45569 15.646H9.45569L9.45569 15.646V9.646Z" fill="black" mask="url(#path-1-inside-1)"/>
<mask id="path-3-inside-2" fill="white">
<path fill-rule="evenodd" clip-rule="evenodd" d="M89.7042 15.646C89.7042 13.9891 88.361 12.646 86.7042 12.646H76.1126V14.6847H87.6655V24.1988H89.7042V15.646Z"/>
</mask>
<path fill-rule="evenodd" clip-rule="evenodd" d="M89.7042 15.646C89.7042 13.9891 88.361 12.646 86.7042 12.646H76.1126V14.6847H87.6655V24.1988H89.7042V15.646Z" fill="black"/>
<path d="M76.1126 12.646H73.1126V9.646H76.1126V12.646ZM76.1126 14.6847V17.6847H73.1126V14.6847H76.1126ZM87.6655 14.6847V11.6847H90.6655V14.6847H87.6655ZM87.6655 24.1988V27.1988H84.6655V24.1988H87.6655ZM89.7042 24.1988H92.7042V27.1988H89.7042V24.1988ZM73.1126 14.6847V12.646H79.1126V14.6847H73.1126ZM87.6655 17.6847H76.1126V11.6847H87.6655V17.6847ZM84.6655 24.1988V14.6847H90.6655V24.1988H84.6655ZM89.7042 27.1988H87.6655V21.1988H89.7042V27.1988ZM76.1126 9.646H86.7042V15.646H76.1126V9.646ZM92.7042 15.646V24.1988H86.7042V15.646H92.7042ZM86.7042 9.646C90.0179 9.646 92.7042 12.3323 92.7042 15.646H86.7042L86.7042 15.646V9.646Z" fill="black" mask="url(#path-3-inside-2)"/>
<mask id="path-5-inside-3" fill="white">
<path fill-rule="evenodd" clip-rule="evenodd" d="M6.45569 82.0212C6.45569 83.6781 7.79883 85.0212 9.45569 85.0212H20.0473V82.9825H8.49443V73.4684H6.45569V82.0212Z"/>
</mask>
<path fill-rule="evenodd" clip-rule="evenodd" d="M6.45569 82.0212C6.45569 83.6781 7.79883 85.0212 9.45569 85.0212H20.0473V82.9825H8.49443V73.4684H6.45569V82.0212Z" fill="black"/>
<path d="M20.0473 85.0212H23.0473V88.0212H20.0473V85.0212ZM20.0473 82.9825V79.9825H23.0473V82.9825H20.0473ZM8.49443 82.9825V85.9825H5.49443V82.9825H8.49443ZM8.49443 73.4684V70.4684H11.4944V73.4684H8.49443ZM6.45569 73.4684H3.45569V70.4684H6.45569V73.4684ZM23.0473 82.9825V85.0212H17.0473V82.9825H23.0473ZM8.49443 79.9825H20.0473V85.9825H8.49443V79.9825ZM11.4944 73.4684V82.9825H5.49443V73.4684H11.4944ZM6.45569 70.4684H8.49443V76.4684H6.45569V70.4684ZM20.0473 88.0212H9.45569V82.0212H20.0473V88.0212ZM3.45569 82.0212V73.4684H9.45569V82.0212H3.45569ZM9.45569 88.0212C6.14198 88.0212 3.45569 85.3349 3.45569 82.0212H9.45569L9.45569 82.0212V88.0212Z" fill="black" mask="url(#path-5-inside-3)"/>
<mask id="path-7-inside-4" fill="white">
<path fill-rule="evenodd" clip-rule="evenodd" d="M89.7042 82.0212C89.7042 83.6781 88.361 85.0212 86.7042 85.0212H76.1126V82.9825H87.6655V73.4684H89.7042V82.0212Z"/>
</mask>
<path fill-rule="evenodd" clip-rule="evenodd" d="M89.7042 82.0212C89.7042 83.6781 88.361 85.0212 86.7042 85.0212H76.1126V82.9825H87.6655V73.4684H89.7042V82.0212Z" fill="black"/>
<path d="M76.1126 85.0212H73.1126V88.0212H76.1126V85.0212ZM76.1126 82.9825V79.9825H73.1126V82.9825H76.1126ZM87.6655 82.9825V85.9825H90.6655V82.9825H87.6655ZM87.6655 73.4684V70.4684H84.6655V73.4684H87.6655ZM89.7042 73.4684H92.7042V70.4684H89.7042V73.4684ZM73.1126 82.9825V85.0212H79.1126V82.9825H73.1126ZM87.6655 79.9825H76.1126V85.9825H87.6655V79.9825ZM84.6655 73.4684V82.9825H90.6655V73.4684H84.6655ZM89.7042 70.4684H87.6655V76.4684H89.7042V70.4684ZM76.1126 88.0212H86.7042V82.0212H76.1126V88.0212ZM92.7042 82.0212V73.4684H86.7042V82.0212H92.7042ZM86.7042 88.0212C90.0179 88.0212 92.7042 85.3349 92.7042 82.0212H86.7042L86.7042 82.0212V88.0212Z" fill="black" mask="url(#path-7-inside-4)"/>
<circle cx="48.5897" cy="49.2324" r="26.2025" fill="black" stroke="black" stroke-width="4"/>
<path d="M47.9219 21.5378L48.5896 21.5299L48.5955 21.5299L49.0896 21.5241V21.0299V14.345V13.845H48.5896H47.91H47.41V14.345V21.038V21.5439L47.9159 21.5379L47.9219 21.5378ZM8.15466 48.1637H7.65466V48.6637V49.3433V49.8433H8.15466H20.3873H20.8892L20.8873 49.3414L20.8871 49.2325C20.8871 49.0457 20.8889 48.8594 20.8926 48.6736L20.9027 48.1637H20.3927H8.15466ZM47.41 83.662V84.162H47.91H48.5896H49.0896V83.662V77.435V76.935H48.5896C48.3664 76.935 48.1438 76.9324 47.9219 76.9271L47.41 76.915V77.427V83.662ZM76.2919 49.3414L76.29 49.8433H76.7919H88.345H88.845V49.3433V48.6637V48.1637H88.345H76.7865H76.2765L76.2866 48.6736C76.2903 48.8594 76.2922 49.0457 76.2922 49.2325L76.2919 49.3414Z" fill="black" stroke="black"/>
<path d="M46.7305 21.7256V22.2316L47.2364 22.2256L49.2752 22.2015L49.7693 22.1957V21.7015V14.6848C49.7693 13.8457 49.089 13.1654 48.2499 13.1654C47.4108 13.1654 46.7305 13.8457 46.7305 14.6848V21.7256ZM21.5858 47.994L21.5959 47.4842H21.0859H8.49453C7.6554 47.4842 6.97516 48.1644 6.97516 49.0035C6.97516 49.8426 7.6554 50.5229 8.49453 50.5229H21.0696H21.5715L21.5696 50.021L21.5669 49.3388L21.5667 49.2325C21.5667 49.0502 21.5685 48.8684 21.5721 48.6871L21.5858 47.994ZM47.2424 76.2313L46.7305 76.2192V76.7312V83.3223C46.7305 84.1614 47.4108 84.8416 48.2499 84.8416C49.089 84.8416 49.7693 84.1614 49.7693 83.3223V76.7554V76.2554H49.2693H48.5897C48.3718 76.2554 48.1546 76.2529 47.938 76.2477L47.2424 76.2313ZM75.6099 50.021L75.608 50.5229H76.1099H88.0053C88.8444 50.5229 89.5247 49.8426 89.5247 49.0035C89.5247 48.1644 88.8444 47.4842 88.0053 47.4842H76.0935H75.5835L75.5936 47.994L75.6073 48.6871C75.6109 48.8684 75.6127 49.0502 75.6127 49.2325L75.6126 49.276L75.6124 49.3388L75.6099 50.021Z" fill="black" stroke="black"/>
<path fill-rule="evenodd" clip-rule="evenodd" d="M46.8906 32.7725C46.8906 32.0218 47.4991 31.4133 48.2498 31.4133V31.4133C49.0004 31.4133 49.6089 32.0218 49.6089 32.7725V47.5334H61.6516C62.4022 47.5334 63.0107 48.1419 63.0107 48.8926V48.8926C63.0107 49.6432 62.4022 50.2517 61.6516 50.2517H46.8906V32.7725Z" fill="#FECE57"/>
<path d="M6.42507 136.772V112.852H12.3452C13.7786 112.852 14.9175 113.118 15.7618 113.649C16.6258 114.161 17.2541 114.909 17.6468 115.894C18.0395 116.878 18.2359 118.069 18.2359 119.467C18.2359 120.727 18.0101 121.82 17.5585 122.745C17.1265 123.67 16.4785 124.389 15.6145 124.901C14.7506 125.393 13.6706 125.639 12.3747 125.639H9.75331V136.772H6.42507ZM9.75331 123.247H11.2849C12.247 123.247 13.003 123.139 13.5528 122.922C14.1026 122.706 14.4953 122.332 14.7309 121.8C14.9666 121.249 15.0844 120.481 15.0844 119.497C15.0844 118.355 14.996 117.479 14.8193 116.868C14.6622 116.258 14.3186 115.835 13.7884 115.598C13.2583 115.362 12.4336 115.244 11.3143 115.244H9.75331V123.247Z" fill="black"/>
<path d="M23.2273 136.772V112.852H26.5556V123.188H32.6819V112.852H36.0101V136.772H32.6819V125.58H26.5556V136.772H23.2273Z" fill="black"/>
<path d="M48.485 137.038C46.8749 137.038 45.5888 136.723 44.6266 136.093C43.6645 135.463 42.9772 134.567 42.5649 133.406C42.1525 132.225 41.9464 130.846 41.9464 129.271V120.205C41.9464 118.63 42.1525 117.282 42.5649 116.159C42.9969 115.018 43.6841 114.151 44.6266 113.561C45.5888 112.95 46.8749 112.645 48.485 112.645C50.0952 112.645 51.3715 112.95 52.314 113.561C53.2565 114.171 53.9339 115.037 54.3463 116.159C54.7783 117.282 54.9942 118.63 54.9942 120.205V129.301C54.9942 130.856 54.7783 132.215 54.3463 133.376C53.9339 134.538 53.2565 135.443 52.314 136.093C51.3715 136.723 50.0952 137.038 48.485 137.038ZM48.485 134.41C49.3686 134.41 50.0363 134.233 50.4879 133.878C50.9395 133.504 51.2438 132.992 51.4009 132.343C51.558 131.673 51.6366 130.896 51.6366 130.01V119.526C51.6366 118.64 51.558 117.882 51.4009 117.252C51.2438 116.602 50.9395 116.11 50.4879 115.776C50.0363 115.421 49.3686 115.244 48.485 115.244C47.6014 115.244 46.924 115.421 46.4527 115.776C46.0011 116.11 45.6968 116.602 45.5397 117.252C45.3826 117.882 45.3041 118.64 45.3041 119.526V130.01C45.3041 130.896 45.3826 131.673 45.5397 132.343C45.6968 132.992 46.0011 133.504 46.4527 133.878C46.924 134.233 47.6014 134.41 48.485 134.41Z" fill="black"/>
<path d="M63.5376 136.772V115.333H59.5025V112.852H70.7831V115.333H66.8658V136.772H63.5376Z" fill="black"/>
<path d="M81.8307 137.038C80.2206 137.038 78.9344 136.723 77.9723 136.093C77.0102 135.463 76.3229 134.567 75.9106 133.406C75.4982 132.225 75.292 130.846 75.292 129.271V120.205C75.292 118.63 75.4982 117.282 75.9106 116.159C76.3425 115.018 77.0298 114.151 77.9723 113.561C78.9344 112.95 80.2206 112.645 81.8307 112.645C83.4408 112.645 84.7171 112.95 85.6596 113.561C86.6022 114.171 87.2796 115.037 87.6919 116.159C88.1239 117.282 88.3399 118.63 88.3399 120.205V129.301C88.3399 130.856 88.1239 132.215 87.6919 133.376C87.2796 134.538 86.6022 135.443 85.6596 136.093C84.7171 136.723 83.4408 137.038 81.8307 137.038ZM81.8307 134.41C82.7143 134.41 83.3819 134.233 83.8335 133.878C84.2852 133.504 84.5895 132.992 84.7466 132.343C84.9037 131.673 84.9822 130.896 84.9822 130.01V119.526C84.9822 118.64 84.9037 117.882 84.7466 117.252C84.5895 116.602 84.2852 116.11 83.8335 115.776C83.3819 115.421 82.7143 115.244 81.8307 115.244C80.9471 115.244 80.2697 115.421 79.7984 115.776C79.3468 116.11 79.0424 116.602 78.8854 117.252C78.7283 117.882 78.6497 118.64 78.6497 119.526V130.01C78.6497 130.896 78.7283 131.673 78.8854 132.343C79.0424 132.992 79.3468 133.504 79.7984 133.878C80.2697 134.233 80.9471 134.41 81.8307 134.41Z" fill="black"/>
<path d="M6.30975 177.323V144.834H14.3505C16.2974 144.834 17.8442 145.195 18.991 145.917C20.1644 146.612 21.0179 147.628 21.5512 148.965C22.0846 150.302 22.3513 151.92 22.3513 153.819C22.3513 155.53 22.0446 157.014 21.4312 158.271C20.8445 159.528 19.9644 160.504 18.791 161.199C17.6175 161.867 16.1507 162.202 14.3905 162.202H10.8302V177.323H6.30975ZM10.8302 158.953H12.9104C14.2172 158.953 15.244 158.806 15.9907 158.511C16.7374 158.217 17.2708 157.709 17.5909 156.987C17.9109 156.239 18.0709 155.196 18.0709 153.859C18.0709 152.308 17.9509 151.118 17.7109 150.289C17.4975 149.46 17.0308 148.885 16.3107 148.564C15.5907 148.243 14.4706 148.083 12.9504 148.083H10.8302V158.953Z" fill="black"/>
<path d="M29.1307 177.323V144.834H33.6512V174.074H41.932V177.323H29.1307Z" fill="black"/>
<path d="M46.8709 177.323L53.7516 144.834H58.112L65.0327 177.323H60.7523L59.2721 169.141H52.6715L51.1113 177.323H46.8709ZM53.2715 165.892H58.6721L55.9518 151.252L53.2715 165.892Z" fill="black"/>
<path d="M71.9209 177.323V144.834H75.0012L84.2021 166.413V144.834H87.9624V177.323H85.0822L75.7612 155.142V177.323H71.9209Z" fill="black"/>
</svg>
